<?xml version="1.0" encoding="UTF-8" ?>
<!DOCTYPE svg PUBLIC "-//W3C//DTD SVG 1.1//EN" "http://www.w3.org/Graphics/SVG/1.1/DTD/svg11.dtd">
<svg width="130pt" height="128pt" viewBox="0 0 130 128" version="1.1" xmlns="http://www.w3.org/2000/svg">
<g id="#455a64ff">
<path fill="#455a64" opacity="1.00" d=" M 56.07 0.89 C 62.00 -0.20 68.07 0.63 74.06 0.36 C 80.96 -0.06 87.89 3.77 91.04 9.94 C 93.78 14.75 93.08 20.46 93.09 25.76 C 96.02 23.80 99.43 22.53 103.01 22.74 C 107.95 22.92 112.97 22.36 117.88 23.03 C 118.19 23.29 118.81 23.80 119.12 24.05 C 119.59 27.35 119.48 30.71 119.20 34.02 C 118.54 40.13 113.24 45.36 107.13 45.93 C 102.47 46.26 97.79 45.97 93.13 46.07 C 93.12 48.73 93.13 51.39 93.09 54.05 C 101.55 56.29 109.33 61.67 113.48 69.50 C 114.72 71.17 112.99 73.98 110.91 73.32 C 109.27 73.15 108.79 71.21 107.81 70.15 C 101.89 60.87 89.66 56.40 79.12 59.43 C 75.71 60.20 72.85 62.24 69.80 63.82 C 67.36 64.70 65.40 61.01 67.49 59.50 C 73.29 54.98 80.79 53.12 88.06 53.35 C 88.06 44.86 88.06 36.37 88.06 27.88 C 82.72 27.80 77.38 28.04 72.05 27.77 C 64.15 27.20 57.19 20.72 56.02 12.90 C 55.53 8.92 55.63 4.87 56.07 0.89 M 60.82 5.46 C 60.53 10.52 61.09 16.28 65.39 19.65 C 71.76 24.90 80.58 22.00 88.08 22.75 C 88.82 16.48 86.71 9.20 80.40 6.61 C 74.16 4.34 67.31 5.87 60.82 5.46 M 98.44 28.62 C 93.50 30.53 92.70 36.30 93.07 40.92 C 98.34 40.61 103.82 41.72 108.94 40.20 C 113.89 38.30 114.67 32.51 114.29 27.88 C 109.02 28.19 103.56 27.12 98.44 28.62 Z" />
<path fill="#455a64" opacity="1.00" d=" M 41.00 66.94 C 47.97 64.25 55.86 64.44 62.82 67.07 C 71.12 70.19 79.53 73.07 87.77 76.33 C 94.21 78.86 95.28 88.65 89.63 92.59 C 85.82 95.78 80.70 94.29 76.56 92.68 C 71.36 90.67 65.86 89.42 60.81 87.07 C 58.65 85.82 60.48 83.36 61.71 82.20 C 68.86 84.49 75.87 87.24 83.09 89.29 C 87.41 90.50 90.22 83.89 86.49 81.53 C 82.40 79.36 77.86 78.22 73.57 76.50 C 67.06 74.37 60.83 71.06 53.97 70.22 C 44.75 69.18 36.76 74.71 28.57 77.96 C 31.62 84.87 34.66 91.78 37.71 98.68 C 42.28 97.08 47.19 96.04 52.03 96.98 C 59.63 98.41 65.92 103.29 73.03 106.05 C 77.94 108.07 83.60 107.70 88.38 105.51 C 98.84 100.92 109.26 96.24 119.73 91.69 C 121.81 90.79 124.31 89.57 124.50 86.98 C 125.05 83.68 121.36 80.56 118.23 81.93 C 112.26 84.17 106.75 87.52 100.75 89.69 C 98.14 90.68 96.41 86.30 98.95 85.18 C 104.35 82.37 109.97 79.97 115.51 77.43 C 120.32 75.01 126.73 77.37 128.80 82.34 C 131.08 87.20 128.64 93.52 123.65 95.52 C 112.80 100.39 101.88 105.13 91.02 109.98 C 85.12 112.75 78.15 113.39 71.97 111.14 C 65.62 108.78 59.95 104.88 53.57 102.61 C 49.22 101.12 44.55 101.82 40.28 103.17 C 39.99 104.87 39.90 106.64 39.24 108.26 C 38.25 110.25 36.07 111.15 34.23 112.17 C 24.62 116.93 15.09 121.84 5.51 126.66 C 3.87 127.34 0.97 128.98 0.53 125.74 C 0.40 124.10 0.13 120.82 0.00 119.18 L 0.00 91.34 C 0.10 88.37 0.29 82.44 0.39 79.47 C 5.91 75.86 12.27 73.80 18.24 71.08 C 21.28 69.44 24.41 71.16 26.78 73.11 C 31.55 71.11 36.18 68.80 41.00 66.94 M 5.43 82.27 C 5.56 89.58 5.20 96.91 5.62 104.22 C 7.67 103.16 9.67 101.83 11.98 101.41 C 14.03 101.45 15.11 104.18 13.75 105.65 C 11.16 107.42 8.20 108.53 5.43 109.97 C 5.43 113.64 5.43 117.31 5.46 120.98 C 15.28 115.87 25.21 111.00 35.04 105.93 C 31.54 96.68 27.11 87.80 23.30 78.67 C 22.58 77.65 22.53 75.72 21.02 75.57 C 15.72 77.54 10.65 80.08 5.43 82.27 Z" />
<path fill="#455a64" opacity="1.00" d=" M 18.88 97.89 C 19.70 97.78 21.35 97.55 22.17 97.44 C 23.84 99.07 23.86 102.61 20.96 102.66 C 18.30 102.84 17.94 99.74 18.88 97.89 Z" />
</g>
</svg>
