<?xml version="1.0" encoding="UTF-8" ?>
<!DOCTYPE svg PUBLIC "-//W3C//DTD SVG 1.1//EN" "http://www.w3.org/Graphics/SVG/1.1/DTD/svg11.dtd">
<svg width="64pt" height="132pt" viewBox="0 0 64 132" version="1.1" xmlns="http://www.w3.org/2000/svg">
<g id="#455a64ff">
<path fill="#455a64" opacity="1.00" d=" M 17.25 0.00 L 45.09 0.00 C 50.16 0.42 56.30 -0.17 60.03 4.01 C 63.72 7.35 63.65 12.68 64.00 17.25 L 64.00 57.38 C 63.47 61.77 64.35 67.34 60.58 70.55 C 56.09 74.78 49.48 72.46 44.00 73.24 C 41.24 73.33 39.41 76.24 39.99 78.83 C 41.52 91.31 43.35 103.75 44.91 116.22 C 45.50 120.26 44.39 124.57 41.51 127.53 C 37.66 131.77 30.92 132.88 25.90 130.14 C 21.20 127.71 18.33 122.26 19.03 117.00 C 20.53 104.27 22.47 91.58 24.00 78.85 C 24.40 76.75 23.47 74.40 21.42 73.57 C 15.76 72.01 9.00 74.95 4.00 71.05 C 0.49 68.55 0.32 63.85 0.00 59.95 L 0.00 19.66 C 0.52 14.38 -0.39 7.94 3.98 3.99 C 7.32 0.26 12.67 0.34 17.25 0.00 M 5.71 12.02 C 5.48 21.30 5.70 30.59 5.62 39.87 C 23.21 39.87 40.80 39.89 58.38 39.86 C 58.29 30.56 58.53 21.26 58.28 11.97 C 58.24 9.27 56.05 7.49 54.09 5.99 C 53.80 11.99 54.24 17.99 53.87 23.98 C 53.82 26.83 48.90 26.89 48.85 24.02 C 48.56 17.89 48.85 11.75 48.74 5.62 C 47.27 5.62 45.80 5.62 44.32 5.62 C 44.17 15.06 44.56 24.52 44.14 33.95 C 43.39 36.71 38.88 35.92 39.11 33.09 C 38.96 23.94 39.12 14.78 39.06 5.63 C 37.58 5.63 36.10 5.63 34.63 5.63 C 34.51 14.99 34.84 24.37 34.49 33.72 C 34.01 36.72 29.01 35.98 29.42 32.95 C 29.28 23.84 29.43 14.73 29.37 5.63 C 27.89 5.63 26.42 5.63 24.94 5.63 C 24.94 14.10 24.93 22.57 24.96 31.04 C 24.80 32.41 25.31 34.35 23.82 35.16 C 22.33 36.59 19.46 35.08 19.75 33.01 C 19.59 24.18 19.72 15.34 19.73 6.50 L 20.85 7.13 C 19.33 5.77 17.20 5.74 15.31 5.39 C 15.07 14.90 15.49 24.44 15.11 33.94 C 14.37 36.66 9.85 35.94 10.08 33.11 C 9.83 24.08 10.17 15.03 9.91 6.00 C 7.94 7.50 5.74 9.30 5.71 12.02 M 5.62 45.19 C 5.63 49.75 5.63 54.31 5.62 58.86 C 23.21 58.88 40.79 58.88 58.38 58.86 C 58.37 54.31 58.38 49.75 58.37 45.19 C 40.79 45.19 23.21 45.18 5.62 45.19 M 5.40 64.18 C 6.35 65.62 7.22 67.60 9.21 67.73 C 13.15 68.17 17.12 67.59 21.07 68.00 C 26.21 68.59 30.10 73.90 29.29 78.99 C 27.73 91.66 25.89 104.31 24.30 116.99 C 23.32 121.61 27.19 126.48 31.95 126.32 C 36.78 126.54 40.71 121.60 39.69 116.93 C 38.12 104.60 36.41 92.27 34.80 79.94 C 34.06 76.11 35.50 71.89 38.78 69.65 C 43.70 66.28 50.00 68.79 55.47 67.58 C 57.10 67.15 57.71 65.41 58.60 64.18 C 40.86 64.09 23.13 64.09 5.40 64.18 Z" />
<path fill="#455a64" opacity="1.00" d=" M 50.35 29.28 C 54.32 27.70 55.59 34.96 51.84 35.63 C 48.33 36.33 47.48 30.47 50.35 29.28 Z" />
<path fill="#455a64" opacity="1.00" d=" M 31.17 115.22 C 35.30 113.76 36.11 121.69 31.99 121.66 C 28.74 121.68 28.31 116.13 31.17 115.22 Z" />
</g>
</svg>
