<?xml version="1.0" encoding="UTF-8" ?>
<!DOCTYPE svg PUBLIC "-//W3C//DTD SVG 1.1//EN" "http://www.w3.org/Graphics/SVG/1.1/DTD/svg11.dtd">
<svg width="132pt" height="132pt" viewBox="0 0 132 132" version="1.1" xmlns="http://www.w3.org/2000/svg">
<g id="#455a64ff">
<path fill="#455a64" opacity="1.00" d=" M 55.33 0.00 L 56.72 0.00 C 59.62 1.74 62.80 2.92 66.00 3.98 C 69.16 2.87 72.40 1.83 75.25 0.00 L 76.69 0.00 C 79.36 2.51 82.26 4.75 85.13 7.02 C 88.74 6.90 92.36 6.47 95.98 6.75 C 98.66 9.31 100.30 12.72 102.33 15.79 C 105.88 16.85 109.57 17.49 112.96 19.01 C 114.52 22.39 115.15 26.10 116.20 29.65 C 119.26 31.68 122.64 33.33 125.23 35.98 C 125.55 39.60 125.09 43.24 124.96 46.86 C 127.37 49.83 129.85 52.75 132.00 55.91 L 132.00 56.23 C 130.45 59.39 129.18 62.67 128.01 65.99 C 129.22 69.22 130.40 72.47 131.65 75.70 C 131.74 75.57 131.91 75.32 132.00 75.20 L 132.00 76.57 C 129.55 79.32 127.29 82.23 124.99 85.10 C 125.09 88.71 125.52 92.33 125.25 95.95 C 122.72 98.66 119.29 100.28 116.24 102.32 C 115.20 105.92 114.21 109.54 113.17 113.15 C 109.56 114.21 105.94 115.20 102.32 116.24 C 100.28 119.29 98.67 122.73 95.94 125.25 C 92.35 125.53 88.74 125.09 85.15 124.97 C 82.26 127.24 79.37 129.50 76.67 132.00 L 75.28 132.00 C 72.39 130.25 69.20 129.09 66.01 128.02 C 62.84 129.12 59.60 130.18 56.75 132.00 L 55.31 132.00 C 52.64 129.48 49.73 127.24 46.85 124.97 C 43.23 125.09 39.60 125.54 35.98 125.24 C 33.35 122.64 31.68 119.26 29.64 116.21 C 26.04 115.19 22.44 114.21 18.85 113.17 C 17.79 109.57 16.80 105.95 15.78 102.34 C 12.72 100.29 9.30 98.66 6.75 95.96 C 6.47 92.34 6.91 88.72 7.01 85.10 C 4.74 82.23 2.48 79.36 0.00 76.67 L 0.00 75.31 C 1.73 72.40 2.91 69.21 3.98 66.00 C 2.90 62.72 1.62 59.50 0.00 56.45 L 0.00 56.26 C 1.97 52.87 4.53 49.89 7.04 46.89 C 6.91 43.26 6.45 39.62 6.76 35.99 C 9.34 33.34 12.73 31.69 15.78 29.66 C 16.80 26.06 17.79 22.45 18.83 18.85 C 22.44 17.79 26.06 16.80 29.67 15.77 C 31.69 12.72 33.35 9.34 36.00 6.76 C 39.63 6.47 43.27 6.91 46.90 7.01 C 49.77 4.74 52.64 2.48 55.33 0.00 M 56.24 4.84 C 53.49 6.95 51.04 9.52 47.94 11.13 C 44.58 11.32 41.23 10.92 37.88 10.80 C 35.97 13.58 34.38 16.61 32.18 19.18 C 29.03 20.68 25.52 21.19 22.19 22.19 C 21.21 25.50 20.66 28.97 19.23 32.13 C 16.65 34.35 13.61 35.95 10.80 37.86 C 10.92 41.24 11.33 44.62 11.12 47.99 C 9.49 51.04 6.98 53.49 4.86 56.18 C 6.01 59.47 7.23 62.74 8.45 66.01 C 7.24 69.26 6.01 72.52 4.85 75.79 C 6.97 78.49 9.46 80.95 11.12 83.98 C 11.33 87.36 10.92 90.74 10.79 94.11 C 13.59 96.04 16.64 97.63 19.21 99.86 C 20.67 103.01 21.21 106.49 22.19 109.81 C 25.51 110.80 29.00 111.33 32.15 112.79 C 34.37 115.36 35.96 118.40 37.86 121.19 C 41.23 121.08 44.60 120.68 47.98 120.88 C 51.03 122.49 53.47 125.01 56.17 127.14 C 59.47 125.99 62.74 124.77 66.01 123.55 C 69.27 124.77 72.53 125.99 75.81 127.14 C 78.51 125.03 80.96 122.52 83.99 120.88 C 87.37 120.67 90.75 121.08 94.13 121.20 C 96.03 118.41 97.62 115.38 99.83 112.82 C 102.97 111.32 106.49 110.80 109.81 109.81 C 110.79 106.49 111.33 103.01 112.78 99.86 C 115.35 97.64 118.40 96.04 121.20 94.13 C 121.08 90.76 120.68 87.39 120.87 84.02 C 122.50 80.98 125.00 78.52 127.14 75.84 C 125.99 72.53 124.76 69.25 123.55 65.97 C 124.78 62.72 126.00 59.46 127.14 56.17 C 125.02 53.50 122.56 51.06 120.90 48.06 C 120.66 44.67 121.08 41.27 121.20 37.88 C 118.42 35.97 115.39 34.38 112.82 32.18 C 111.32 29.02 110.81 25.51 109.80 22.18 C 106.49 21.21 103.02 20.66 99.87 19.23 C 97.64 16.64 96.04 13.59 94.10 10.79 C 90.73 10.92 87.36 11.33 83.98 11.12 C 80.95 9.46 78.49 6.96 75.79 4.85 C 72.52 6.01 69.27 7.24 66.01 8.45 C 62.75 7.25 59.50 6.03 56.24 4.84 Z" />
<path fill="#455a64" opacity="1.00" d=" M 54.60 14.71 C 68.02 11.79 82.72 14.18 94.20 21.80 C 96.37 22.98 94.12 26.70 92.13 25.18 C 86.21 21.87 79.89 19.12 73.11 18.22 C 57.51 15.75 40.93 21.61 30.34 33.32 C 20.31 44.10 15.73 59.63 18.31 74.13 C 19.64 82.60 23.61 90.41 28.86 97.12 C 30.74 98.84 27.59 101.90 26.04 99.92 C 10.30 82.51 9.34 54.16 23.26 35.37 C 30.70 24.94 42.09 17.45 54.60 14.71 Z" />
<path fill="#455a64" opacity="1.00" d=" M 98.34 27.37 C 101.18 25.49 104.19 29.53 105.22 31.95 C 103.84 36.96 96.66 30.45 98.34 27.37 Z" />
<path fill="#455a64" opacity="1.00" d=" M 73.99 31.11 C 77.88 28.43 83.81 30.52 85.14 35.05 C 86.84 40.86 83.12 46.34 79.81 50.79 C 84.54 50.80 89.29 50.57 94.01 50.85 C 98.12 50.97 101.43 55.03 100.94 59.07 C 100.88 61.21 99.32 62.84 98.15 64.48 C 99.22 67.84 98.69 71.33 96.13 73.87 C 97.14 77.06 96.20 80.25 93.92 82.62 C 95.32 86.43 93.45 91.56 89.03 92.03 C 78.02 92.47 66.97 91.98 55.94 92.24 C 53.77 92.35 52.29 94.59 50.01 94.35 C 45.69 94.41 41.37 94.50 37.05 94.28 C 34.91 94.28 33.18 92.22 33.30 90.13 C 33.17 78.73 33.28 67.32 33.25 55.92 C 32.97 53.61 34.43 50.93 36.98 50.87 C 42.31 50.56 47.66 50.73 52.99 50.94 C 56.97 45.73 64.16 45.27 68.44 40.48 C 71.28 37.92 70.37 33.00 73.99 31.11 M 75.52 35.29 C 74.50 38.15 73.80 41.32 71.42 43.43 C 66.92 48.69 59.22 49.24 54.98 54.83 C 54.62 57.07 55.94 60.58 53.15 61.60 C 49.72 61.41 51.03 57.24 50.69 54.97 C 46.24 54.92 41.79 54.90 37.35 55.02 C 37.45 66.75 37.28 78.48 37.43 90.21 C 41.87 90.18 46.31 90.18 50.76 90.17 C 50.76 83.46 50.72 76.74 50.74 70.03 C 50.89 68.70 50.51 66.84 52.06 66.22 C 53.28 65.80 54.91 66.57 54.83 67.98 C 55.13 74.65 54.84 81.33 54.94 88.00 C 65.98 87.94 77.02 88.12 88.05 87.93 C 89.35 88.07 90.91 86.23 90.03 85.04 C 89.23 83.08 85.85 83.57 85.71 81.06 C 86.80 77.82 91.95 80.66 92.58 77.02 C 92.10 74.62 88.90 74.89 87.97 72.94 C 87.96 69.10 93.27 71.75 94.60 68.93 C 95.49 65.49 89.43 66.46 90.29 63.08 C 91.66 61.12 94.94 62.23 96.26 60.15 C 97.59 58.32 96.32 55.23 94.02 55.09 C 87.36 54.57 80.65 55.31 73.99 54.79 C 72.31 54.73 71.75 52.24 73.18 51.33 C 76.91 47.66 80.93 43.50 81.44 38.00 C 81.90 34.82 77.53 32.64 75.52 35.29 Z" />
<path fill="#455a64" opacity="1.00" d=" M 107.00 37.26 C 108.44 36.36 109.92 36.97 110.63 38.43 C 119.33 52.34 120.84 70.46 114.61 85.64 C 109.19 99.23 97.82 110.27 84.06 115.25 C 66.94 121.66 46.46 118.33 32.53 106.42 C 29.77 104.97 32.65 100.92 34.91 103.12 C 42.12 108.84 50.75 112.88 59.95 113.92 C 74.77 115.87 90.29 110.39 100.62 99.59 C 111.93 88.09 116.76 70.70 112.96 55.01 C 111.81 49.26 108.95 44.12 106.36 38.93 C 106.52 38.51 106.84 37.67 107.00 37.26 Z" />
<path fill="#455a64" opacity="1.00" d=" M 42.35 82.16 C 44.08 80.16 47.40 82.58 45.80 84.79 C 44.16 86.98 40.66 84.37 42.35 82.16 Z" />
</g>
</svg>
