<?xml version="1.0" encoding="UTF-8" ?>
<!DOCTYPE svg PUBLIC "-//W3C//DTD SVG 1.1//EN" "http://www.w3.org/Graphics/SVG/1.1/DTD/svg11.dtd">
<svg width="13pt" height="23pt" viewBox="0 0 13 23" version="1.1" xmlns="http://www.w3.org/2000/svg">
<g id="#ef5d5aff">
<path fill="#ef5d5a" opacity="1.00" d=" M 6.33 0.00 L 6.59 0.00 C 8.83 2.87 10.95 5.83 13.00 8.83 L 13.00 9.21 C 11.61 9.23 10.22 9.25 8.83 9.27 C 8.81 10.78 8.80 12.28 8.79 13.79 C 7.27 13.80 5.74 13.80 4.22 13.81 C 4.20 12.29 4.19 10.78 4.17 9.26 C 2.78 9.25 1.39 9.24 0.00 9.22 L 0.00 8.84 C 2.01 5.82 4.23 2.96 6.33 0.00 Z" />
<path fill="#ef5d5a" opacity="1.00" d=" M 4.41 15.17 C 5.26 13.82 7.62 14.45 8.85 15.04 C 9.60 17.82 3.28 17.57 4.41 15.17 Z" />
<path fill="#ef5d5a" opacity="1.00" d=" M 3.95 17.92 C 5.62 17.49 7.34 17.57 9.02 17.86 C 9.20 20.76 3.87 20.78 3.95 17.92 Z" />
<path fill="#ef5d5a" opacity="1.00" d=" M 4.12 20.80 C 5.69 20.70 7.27 20.68 8.85 20.80 C 8.74 21.35 8.51 22.45 8.40 23.00 L 4.65 23.00 C 4.52 22.45 4.25 21.35 4.12 20.80 Z" />
</g>
</svg>
