<?xml version="1.0" encoding="UTF-8" ?>
<!DOCTYPE svg PUBLIC "-//W3C//DTD SVG 1.1//EN" "http://www.w3.org/Graphics/SVG/1.1/DTD/svg11.dtd">
<svg width="27pt" height="25pt" viewBox="0 0 27 25" version="1.1" xmlns="http://www.w3.org/2000/svg">
<g id="#ef5350ff">
<path fill="#ef5350" opacity="1.00" d=" M 11.41 0.00 L 11.81 0.00 C 12.03 0.48 12.46 1.43 12.67 1.90 C 10.88 4.57 9.44 7.43 8.21 10.38 C 7.32 12.24 4.38 11.05 4.60 9.11 C 7.05 6.21 9.25 3.12 11.41 0.00 Z" />
<path fill="#ef5350" opacity="1.00" d=" M 14.89 0.00 L 15.49 0.00 C 17.79 3.04 19.91 6.21 22.40 9.11 C 22.42 11.46 20.21 11.34 18.58 10.77 C 18.38 6.79 14.18 4.11 14.89 0.00 Z" />
<path fill="#ef5350" opacity="1.00" d=" M -0.00 9.79 C 1.08 9.31 2.16 8.85 3.25 8.40 C 4.18 9.89 4.62 12.59 6.97 11.92 C 8.86 12.23 9.32 10.04 9.92 8.78 C 12.31 8.74 14.69 8.74 17.08 8.78 C 17.69 10.03 18.13 12.25 20.04 11.90 C 22.33 12.62 22.80 9.97 23.66 8.52 C 24.77 8.90 25.88 9.28 27.00 9.65 L 27.00 12.03 C 26.19 12.54 25.37 13.04 24.54 13.53 C 23.60 17.04 24.23 21.53 21.86 24.32 C 16.30 24.65 10.67 24.63 5.11 24.32 C 2.78 21.46 3.37 17.00 2.46 13.46 C 1.64 13.02 0.82 12.57 0.00 12.12 L 0.00 9.79 M 6.92 13.95 C 6.98 16.63 7.52 19.28 8.00 21.92 C 11.26 22.59 9.99 18.86 9.78 17.01 C 9.59 15.49 9.25 12.15 6.92 13.95 M 12.37 14.19 C 12.32 16.80 11.65 19.71 12.93 22.12 C 14.81 22.13 14.85 20.53 14.78 19.08 C 14.84 17.36 15.35 11.72 12.37 14.19 M 17.23 16.94 C 17.04 18.80 15.71 22.60 19.00 21.91 C 19.49 19.28 20.01 16.63 20.08 13.94 C 17.81 12.09 17.41 15.48 17.23 16.94 Z" />
</g>
</svg>
