<?xml version="1.0" encoding="UTF-8" ?>
<!DOCTYPE svg PUBLIC "-//W3C//DTD SVG 1.1//EN" "http://www.w3.org/Graphics/SVG/1.1/DTD/svg11.dtd">
<svg width="40pt" height="40pt" viewBox="0 0 40 40" version="1.1" xmlns="http://www.w3.org/2000/svg">
<g id="#224ca8ff">
<path fill="#224ca8" opacity="1.00" d=" M 0.00 0.00 L 40.00 0.00 L 40.00 40.00 L 27.56 40.00 C 27.57 34.84 27.55 29.67 27.57 24.51 C 29.29 24.51 31.01 24.50 32.73 24.49 C 33.00 22.41 33.28 20.34 33.55 18.26 C 31.55 18.25 29.55 18.25 27.55 18.24 C 27.56 16.48 27.49 14.72 27.71 12.97 C 28.87 10.82 31.72 11.90 33.68 11.59 C 33.68 9.73 33.69 7.87 33.69 6.01 C 30.18 6.10 25.90 5.28 23.25 8.21 C 20.61 10.86 21.45 14.88 21.30 18.24 C 19.57 18.24 17.85 18.25 16.13 18.26 C 16.12 20.33 16.13 22.41 16.13 24.49 C 17.86 24.50 19.58 24.51 21.31 24.51 C 21.32 29.67 21.31 34.84 21.31 40.00 L 0.00 40.00 L 0.00 0.00 Z" />
</g>
</svg>
