<?xml version="1.0" encoding="UTF-8" ?>
<!DOCTYPE svg PUBLIC "-//W3C//DTD SVG 1.1//EN" "http://www.w3.org/Graphics/SVG/1.1/DTD/svg11.dtd">
<svg width="40pt" height="40pt" viewBox="0 0 40 40" version="1.1" xmlns="http://www.w3.org/2000/svg">
<g id="#ff2c00ff">
<path fill="#ff2c00" opacity="1.00" d=" M 0.00 0.00 L 40.00 0.00 L 40.00 40.00 L 0.00 40.00 L 0.00 0.00 M 11.65 11.82 C 6.77 13.62 4.66 20.10 7.47 24.46 C 10.11 29.21 17.47 30.17 21.18 26.17 C 23.27 24.06 23.39 20.97 23.40 18.19 C 20.60 18.20 17.80 18.18 15.00 18.19 C 15.00 19.32 15.00 20.46 15.00 21.59 C 16.68 21.63 18.37 21.68 20.05 21.72 C 18.94 24.01 16.63 25.80 13.96 25.10 C 10.00 24.49 8.33 19.01 11.20 16.25 C 13.09 13.96 16.30 14.51 18.66 15.66 C 19.41 14.82 20.16 13.98 20.91 13.14 C 18.15 11.48 14.74 10.43 11.65 11.82 M 28.63 15.34 C 28.63 16.11 28.63 17.65 28.63 18.42 C 27.86 18.43 26.33 18.45 25.56 18.46 L 25.57 20.54 C 26.33 20.55 27.86 20.57 28.62 20.58 C 28.63 21.59 28.63 22.60 28.63 23.61 C 29.15 23.62 30.20 23.64 30.72 23.65 C 30.73 22.88 30.76 21.34 30.77 20.57 C 31.55 20.56 33.10 20.56 33.87 20.55 C 33.88 20.03 33.88 18.97 33.88 18.45 C 33.10 18.44 31.54 18.43 30.77 18.43 C 30.76 17.64 30.74 16.07 30.73 15.29 C 30.20 15.30 29.15 15.33 28.63 15.34 Z" />
</g>
</svg>
