<?xml version="1.0" encoding="UTF-8" ?>
<!DOCTYPE svg PUBLIC "-//W3C//DTD SVG 1.1//EN" "http://www.w3.org/Graphics/SVG/1.1/DTD/svg11.dtd">
<svg width="170pt" height="44pt" viewBox="0 0 170 44" version="1.1" xmlns="http://www.w3.org/2000/svg">
<g id="#ff000bff">
<path fill="#ff000b" opacity="1.00" d=" M 13.39 0.00 L 17.35 0.00 C 21.27 0.70 24.86 2.82 27.38 5.91 C 25.04 5.91 22.71 6.05 20.39 6.21 C 17.12 10.68 13.51 14.90 10.27 19.39 C 9.13 20.88 9.09 22.84 8.62 24.59 C 10.90 24.65 13.18 24.68 15.46 24.70 C 15.45 22.45 15.44 20.19 15.42 17.94 C 17.06 20.15 18.72 22.34 20.38 24.54 C 22.80 24.66 25.22 24.83 27.63 24.99 C 24.37 28.45 19.92 31.12 15.00 30.81 C 7.55 30.86 1.12 24.77 0.00 17.53 L 0.00 14.09 C 0.55 6.98 6.38 1.04 13.39 0.00 M 9.11 6.10 C 9.10 8.12 9.10 10.14 9.10 12.16 C 7.06 12.16 5.02 12.16 2.98 12.16 C 2.98 14.24 2.94 16.32 3.06 18.40 C 5.12 18.53 7.17 18.51 9.23 18.55 C 11.83 14.66 16.46 11.38 15.57 6.13 C 13.41 6.11 11.26 6.10 9.11 6.10 Z" />
<path fill="#ff000b" opacity="1.00" d=" M 20.42 15.39 C 22.67 12.23 25.38 9.44 27.69 6.33 C 31.97 11.77 31.22 19.30 27.90 25.00 C 25.53 21.70 22.87 18.62 20.42 15.39 Z" />
</g>
<g id="#ffffffff">
<path fill="#ffffff" opacity="1.00" d=" M 9.11 6.10 C 11.26 6.10 13.41 6.11 15.57 6.13 C 16.46 11.38 11.83 14.66 9.23 18.55 C 7.17 18.51 5.12 18.53 3.06 18.40 C 2.94 16.32 2.98 14.24 2.98 12.16 C 5.02 12.16 7.06 12.16 9.10 12.16 C 9.10 10.14 9.10 8.12 9.11 6.10 Z" />
<path fill="#ffffff" opacity="1.00" d=" M 20.39 6.21 C 22.71 6.05 25.04 5.91 27.38 5.91 C 27.46 6.02 27.61 6.22 27.69 6.33 C 25.38 9.44 22.67 12.23 20.42 15.39 C 22.87 18.62 25.53 21.70 27.90 25.00 L 27.90 25.01 L 27.63 24.99 C 25.22 24.83 22.80 24.66 20.38 24.54 C 18.72 22.34 17.06 20.15 15.42 17.94 C 15.44 20.19 15.45 22.45 15.46 24.70 C 13.18 24.68 10.90 24.65 8.62 24.59 C 9.09 22.84 9.13 20.88 10.27 19.39 C 13.51 14.90 17.12 10.68 20.39 6.21 Z" />
</g>
<g id="#1d5190ff">
<path fill="#1d5190" opacity="1.00" d=" M 39.77 6.17 C 41.08 6.17 42.39 6.17 43.71 6.17 C 43.71 8.88 43.72 11.59 43.75 14.30 C 45.87 11.60 47.94 8.87 50.02 6.15 C 51.54 6.16 53.06 6.18 54.59 6.21 C 52.63 8.70 50.64 11.17 48.68 13.67 C 50.78 17.30 52.83 20.96 54.87 24.63 C 53.35 24.59 51.83 24.55 50.31 24.51 C 49.01 21.91 47.65 19.35 46.29 16.78 C 45.42 17.74 44.54 18.69 43.68 19.67 C 43.69 21.31 43.72 22.95 43.73 24.60 C 42.74 24.59 40.75 24.59 39.76 24.58 C 39.77 18.45 39.75 12.31 39.77 6.17 Z" />
<path fill="#1d5190" opacity="1.00" d=" M 57.16 6.21 C 61.23 6.65 66.47 4.87 69.57 8.35 C 71.98 11.32 70.38 15.36 67.67 17.49 C 68.85 19.86 70.00 22.25 71.16 24.64 C 69.71 24.59 68.26 24.58 66.81 24.52 C 65.25 21.83 64.88 17.32 60.96 17.23 C 60.95 19.69 60.94 22.15 60.95 24.61 C 59.69 24.60 58.43 24.60 57.17 24.60 C 57.17 18.47 57.18 12.34 57.16 6.21 M 60.94 9.44 C 60.94 11.02 60.94 12.61 60.95 14.19 C 62.82 14.06 64.73 14.03 66.55 13.52 C 66.71 12.24 66.61 10.95 66.58 9.67 C 64.70 9.57 62.82 9.50 60.94 9.44 Z" />
<path fill="#1d5190" opacity="1.00" d=" M 77.26 6.38 C 80.97 4.77 86.37 6.18 87.42 10.47 C 88.07 13.76 88.09 17.25 87.29 20.51 C 85.36 26.62 74.65 26.14 73.69 19.59 C 73.21 15.18 72.33 8.64 77.26 6.38 M 79.35 9.48 C 76.46 11.07 77.63 15.21 77.58 17.94 C 77.12 20.97 81.52 22.66 83.12 20.07 C 84.18 17.35 83.82 14.27 83.47 11.44 C 83.19 9.54 80.97 8.81 79.35 9.48 Z" />
<path fill="#1d5190" opacity="1.00" d=" M 90.89 6.16 C 92.18 6.17 93.46 6.19 94.75 6.20 C 96.97 10.20 99.19 14.20 101.45 18.18 C 101.48 14.17 101.46 10.16 101.48 6.15 C 102.37 6.16 104.15 6.18 105.05 6.19 C 105.07 12.34 105.10 18.49 104.91 24.63 C 103.70 24.61 102.50 24.60 101.29 24.58 C 99.04 20.60 96.78 16.62 94.49 12.66 C 94.46 16.64 94.48 20.61 94.47 24.59 C 93.57 24.59 91.78 24.59 90.88 24.59 C 90.88 18.45 90.87 12.31 90.89 6.16 Z" />
<path fill="#1d5190" opacity="1.00" d=" M 112.15 6.29 C 115.70 4.90 120.73 6.12 121.98 10.07 C 122.83 13.28 122.75 16.73 122.12 19.98 C 120.79 26.41 109.69 26.47 108.46 19.92 C 107.88 15.37 106.93 8.50 112.15 6.29 M 114.39 9.36 C 112.75 9.66 112.20 11.51 112.19 12.96 C 112.12 15.36 111.95 17.88 112.82 20.16 C 114.30 22.07 117.94 21.57 118.23 18.95 C 118.61 16.34 118.62 13.64 118.07 11.06 C 117.62 9.48 115.82 9.01 114.39 9.36 Z" />
<path fill="#1d5190" opacity="1.00" d=" M 123.98 6.03 C 128.73 5.97 133.48 6.01 138.23 5.99 C 138.24 7.31 138.24 8.63 138.25 9.95 C 136.54 9.95 134.84 9.96 133.14 9.97 C 133.14 14.86 133.14 19.75 133.14 24.64 C 132.11 24.60 130.04 24.53 129.00 24.50 C 128.99 19.58 129.00 14.66 129.00 9.74 C 127.33 9.74 125.67 9.71 124.00 9.71 C 124.00 8.48 123.99 7.25 123.98 6.03 Z" />
<path fill="#1d5190" opacity="1.00" d=" M 140.48 6.00 C 144.64 6.01 148.80 5.97 152.96 6.04 C 152.96 7.26 152.96 8.48 152.95 9.71 C 150.19 9.73 147.43 9.73 144.67 9.73 C 144.62 10.98 144.59 12.22 144.56 13.46 C 146.89 13.48 149.22 13.50 151.55 13.52 C 151.56 14.40 151.58 16.17 151.59 17.06 C 149.25 17.07 146.91 17.07 144.57 17.09 C 144.58 18.39 144.59 19.70 144.61 21.00 C 147.41 20.98 150.22 20.99 153.02 21.06 C 152.99 22.28 152.96 23.49 152.92 24.71 C 148.78 24.73 144.64 24.73 140.50 24.74 C 140.36 18.50 140.38 12.25 140.48 6.00 Z" />
<path fill="#1d5190" opacity="1.00" d=" M 154.85 5.90 C 156.33 6.12 157.85 6.21 159.30 6.61 C 160.53 8.06 161.46 9.72 162.50 11.31 C 163.48 9.58 164.47 7.86 165.46 6.14 C 166.97 6.14 168.49 6.17 170.00 6.17 L 170.00 6.68 C 168.16 9.45 166.36 12.25 164.65 15.10 C 166.40 18.09 168.18 21.06 169.99 24.01 L 170.00 20.52 L 170.00 25.09 C 168.61 24.82 167.21 24.61 165.83 24.29 C 164.46 22.63 163.48 20.70 162.37 18.88 C 161.21 20.84 160.05 22.81 158.88 24.76 C 157.42 24.73 155.96 24.70 154.50 24.67 C 156.34 21.46 158.24 18.30 160.11 15.11 C 158.29 12.08 156.47 9.04 154.85 5.90 Z" />
<path fill="#1d5190" opacity="1.00" d=" M 122.06 37.00 C 123.82 35.84 125.54 37.59 127.13 38.17 C 125.96 38.17 123.61 38.16 122.44 38.15 C 122.53 40.24 122.81 42.40 124.72 43.68 C 124.42 42.41 124.11 41.15 123.79 39.89 C 124.56 39.97 126.10 40.14 126.86 40.23 C 126.29 41.48 125.67 42.72 125.15 44.00 L 122.39 44.00 C 120.90 42.11 120.27 38.88 122.06 37.00 Z" />
<path fill="#1d5190" opacity="1.00" d=" M 39.78 44.00 C 39.77 41.40 39.78 38.79 39.80 36.19 C 41.65 36.93 43.54 37.54 45.48 38.02 C 44.52 38.09 42.62 38.24 41.67 38.32 C 41.57 38.49 41.36 38.83 41.26 39.00 C 42.78 39.85 44.28 40.74 45.76 41.67 C 45.16 42.25 43.96 43.42 43.35 44.00 L 39.78 44.00 M 41.43 40.99 C 40.95 42.60 41.52 43.13 43.15 42.57 C 43.64 40.94 43.06 40.41 41.43 40.99 Z" />
<path fill="#1d5190" opacity="1.00" d=" M 45.35 35.95 C 46.00 36.70 47.30 38.21 47.95 38.96 C 48.89 38.02 49.83 37.09 50.78 36.18 C 49.94 38.79 49.05 41.38 48.24 44.00 L 47.49 44.00 C 46.87 41.29 46.07 38.63 45.35 35.95 Z" />
<path fill="#1d5190" opacity="1.00" d=" M 53.67 39.45 C 53.48 36.71 56.55 37.13 58.46 36.64 L 58.14 38.33 C 57.17 38.36 55.24 38.44 54.28 38.47 C 55.86 39.33 57.46 40.14 59.09 40.91 C 58.67 41.96 58.21 42.98 57.74 44.00 L 54.95 44.00 C 54.53 43.58 53.69 42.74 53.27 42.32 C 54.41 42.44 56.68 42.68 57.82 42.80 C 56.47 41.64 55.03 40.60 53.67 39.45 Z" />
<path fill="#1d5190" opacity="1.00" d=" M 59.29 35.80 C 60.26 37.43 61.02 39.17 61.86 40.87 C 62.41 39.24 63.01 37.64 63.64 36.05 C 64.11 37.64 64.56 39.24 64.97 40.85 C 65.89 39.17 66.83 37.50 67.66 35.78 C 67.42 38.59 66.78 41.35 65.83 44.00 L 64.41 44.00 C 64.50 42.81 64.79 40.54 63.21 40.30 C 62.08 41.11 62.14 42.78 62.39 44.00 L 60.96 44.00 C 60.12 41.33 59.51 38.59 59.29 35.80 Z" />
<path fill="#1d5190" opacity="1.00" d=" M 69.15 36.97 C 70.42 39.08 70.00 41.76 69.31 44.00 L 68.96 44.00 C 68.46 41.70 68.30 39.21 69.15 36.97 Z" />
<path fill="#1d5190" opacity="1.00" d=" M 72.36 37.22 C 73.97 37.19 75.57 37.20 77.19 37.24 C 75.61 37.60 74.07 38.07 72.58 38.67 C 73.91 39.58 75.52 40.13 76.61 41.34 C 76.43 42.24 76.20 43.13 75.92 44.00 L 72.92 44.00 C 72.46 43.66 71.56 42.98 71.10 42.64 C 72.79 42.49 74.48 42.36 76.17 42.18 C 74.55 41.49 72.92 40.80 71.30 40.13 C 71.62 39.15 71.98 38.18 72.36 37.22 Z" />
<path fill="#1d5190" opacity="1.00" d=" M 77.36 37.30 C 79.03 37.21 80.70 37.12 82.37 37.05 L 82.05 38.43 C 81.12 38.37 79.27 38.24 78.35 38.17 C 79.83 39.16 81.25 40.24 82.67 41.32 C 82.46 42.22 82.22 43.11 81.96 44.00 L 78.89 44.00 C 78.46 43.57 77.60 42.71 77.18 42.28 C 78.67 42.44 80.16 42.60 81.65 42.77 C 79.76 41.33 77.53 39.92 77.36 37.30 Z" />
<path fill="#1d5190" opacity="1.00" d=" M 86.16 44.00 C 85.74 41.22 86.03 38.44 86.82 35.76 C 87.12 37.10 87.42 38.44 87.72 39.79 C 88.80 38.51 89.90 37.23 91.00 35.96 C 89.77 38.71 90.24 41.55 91.80 44.00 L 90.33 44.00 C 90.05 42.92 89.52 42.01 88.75 41.26 C 87.17 40.72 86.99 43.23 87.87 44.00 L 86.16 44.00 Z" />
<path fill="#1d5190" opacity="1.00" d=" M 92.84 36.46 C 94.43 36.78 96.04 37.06 97.59 37.56 C 97.77 39.70 97.54 41.85 97.50 43.99 C 96.59 42.94 95.69 41.89 94.80 40.82 C 94.58 41.88 94.34 42.94 94.09 44.00 L 92.83 44.00 C 92.83 41.49 92.83 38.97 92.84 36.46 M 94.49 38.27 C 94.00 39.89 94.57 40.43 96.20 39.89 C 96.69 38.27 96.12 37.73 94.49 38.27 Z" />
<path fill="#1d5190" opacity="1.00" d=" M 100.19 44.00 C 98.47 41.76 98.02 36.50 102.02 36.82 C 104.70 36.98 104.27 40.16 104.78 42.02 C 104.33 42.51 103.44 43.50 103.00 44.00 L 100.19 44.00 M 100.86 37.27 C 100.69 38.95 100.56 40.64 100.46 42.33 C 101.05 42.41 102.23 42.57 102.82 42.66 C 102.82 40.59 103.39 38.11 100.86 37.27 Z" />
<path fill="#1d5190" opacity="1.00" d=" M 105.81 35.93 C 107.10 37.65 108.38 39.39 109.66 41.11 C 109.60 39.69 109.54 38.27 109.47 36.85 L 110.90 36.80 C 110.88 39.20 110.87 41.60 110.84 44.00 L 109.22 44.00 C 108.95 42.50 108.39 40.88 106.92 40.17 C 106.49 41.58 106.70 42.86 107.55 44.00 L 105.56 44.00 C 105.59 41.31 105.66 38.62 105.81 35.93 Z" />
<path fill="#1d5190" opacity="1.00" d=" M 113.28 44.00 C 111.78 41.67 111.14 36.78 115.03 36.73 C 118.85 37.16 117.30 41.49 117.07 43.99 L 121.09 44.00 L 113.28 44.00 M 113.79 37.45 C 114.05 39.46 112.48 43.90 116.13 42.31 C 116.25 40.24 116.43 37.85 113.79 37.45 Z" />
<path fill="#1d5190" opacity="1.00" d=" M 128.19 44.00 C 127.97 41.47 127.88 38.93 127.82 36.40 C 129.06 36.59 131.53 36.98 132.77 37.17 C 131.57 37.73 130.35 38.27 129.13 38.78 C 129.33 39.24 129.72 40.16 129.92 40.62 L 131.18 38.90 C 131.77 40.59 132.22 42.33 132.87 44.00 L 131.08 44.00 C 131.49 42.64 131.13 41.68 129.99 41.11 C 128.83 41.67 128.45 42.63 128.85 44.00 L 128.19 44.00 Z" />
<path fill="#1d5190" opacity="1.00" d=" M 134.41 37.38 C 135.62 36.61 137.38 36.62 138.60 37.37 C 139.69 39.41 139.12 42.03 138.11 44.00 L 134.69 44.00 C 134.12 41.90 133.28 39.42 134.41 37.38 M 135.80 37.13 C 135.58 38.89 135.42 40.65 135.29 42.42 C 135.91 42.45 137.15 42.52 137.77 42.55 C 137.71 40.53 137.99 38.21 135.80 37.13 Z" />
<path fill="#1d5190" opacity="1.00" d=" M 141.15 43.98 C 139.84 41.27 139.61 38.48 141.06 35.84 C 142.31 37.75 140.57 42.80 143.67 42.74 C 144.04 40.78 144.15 38.78 144.33 36.79 C 144.72 36.81 145.49 36.83 145.88 36.84 C 145.37 39.45 146.84 44.58 142.34 44.00 L 140.65 44.00 C 140.77 44.00 141.03 43.99 141.15 43.98 Z" />
<path fill="#1d5190" opacity="1.00" d=" M 147.15 36.64 C 148.71 36.89 150.28 37.11 151.81 37.53 C 153.48 40.26 149.36 42.44 147.63 44.00 L 147.10 44.00 C 147.11 41.55 147.12 39.09 147.15 36.64 M 148.82 38.32 C 148.32 39.93 148.89 40.48 150.52 39.96 C 151.02 38.34 150.46 37.80 148.82 38.32 Z" />
</g>
</svg>
