<?xml version="1.0" encoding="UTF-8" ?>
<!DOCTYPE svg PUBLIC "-//W3C//DTD SVG 1.1//EN" "http://www.w3.org/Graphics/SVG/1.1/DTD/svg11.dtd">
<svg width="40pt" height="40pt" viewBox="0 0 40 40" version="1.1" xmlns="http://www.w3.org/2000/svg">
<g id="#ff821bff">
<path fill="#ff821b" opacity="1.00" d=" M 0.00 0.00 L 40.00 0.00 L 40.00 40.00 L 0.00 40.00 L 0.00 0.00 M 17.50 6.60 C 12.35 8.41 11.32 16.08 15.87 19.15 C 20.09 22.72 27.27 19.45 27.55 13.99 C 28.21 8.80 22.28 4.40 17.50 6.60 M 12.01 23.74 C 13.27 25.47 15.52 25.90 17.39 26.68 C 15.76 28.74 11.16 30.72 13.09 33.74 C 16.39 35.07 18.15 31.46 20.19 29.62 C 21.66 31.09 23.17 32.52 24.59 34.03 C 25.82 33.95 27.23 34.06 28.03 32.90 C 28.01 30.01 24.78 28.66 23.08 26.75 C 25.11 25.79 28.94 25.33 27.95 22.18 C 27.74 19.96 25.04 21.25 23.84 21.82 C 20.61 23.51 16.91 22.27 13.95 20.61 C 12.94 21.44 11.51 22.18 12.01 23.74 Z" />
<path fill="#ff821b" opacity="1.00" d=" M 19.44 10.42 C 21.27 9.85 22.95 11.33 23.43 13.02 C 23.59 15.52 20.33 17.52 18.37 15.70 C 16.34 14.32 17.07 10.92 19.44 10.42 Z" />
</g>
<g id="#ffffffff">
<path fill="#ffffff" opacity="1.00" d=" M 17.50 6.60 C 22.28 4.40 28.21 8.80 27.55 13.99 C 27.27 19.45 20.09 22.72 15.87 19.15 C 11.32 16.08 12.35 8.41 17.50 6.60 M 19.44 10.42 C 17.07 10.92 16.34 14.32 18.37 15.70 C 20.33 17.52 23.59 15.52 23.43 13.02 C 22.95 11.33 21.27 9.85 19.44 10.42 Z" />
<path fill="#ffffff" opacity="1.00" d=" M 12.01 23.74 C 11.51 22.18 12.94 21.44 13.95 20.61 C 16.91 22.27 20.61 23.51 23.84 21.82 C 25.04 21.25 27.74 19.96 27.95 22.18 C 28.94 25.33 25.11 25.79 23.08 26.75 C 24.78 28.66 28.01 30.01 28.03 32.90 C 27.23 34.06 25.82 33.95 24.59 34.03 C 23.17 32.52 21.66 31.09 20.19 29.62 C 18.15 31.46 16.39 35.07 13.09 33.74 C 11.16 30.72 15.76 28.74 17.39 26.68 C 15.52 25.90 13.27 25.47 12.01 23.74 Z" />
</g>
</svg>
