<?xml version="1.0" encoding="UTF-8" ?>
<!DOCTYPE svg PUBLIC "-//W3C//DTD SVG 1.1//EN" "http://www.w3.org/Graphics/SVG/1.1/DTD/svg11.dtd">
<svg width="29px" height="17px" viewBox="0 0 29 17" version="1.1" xmlns="http://www.w3.org/2000/svg">
<g id="#9a6363a5">
<path fill="#ffffff" opacity="0.65" d=" M 7.47 0.00 L 15.44 0.00 C 21.09 0.59 24.91 4.80 29.00 8.19 L 29.00 8.77 C 25.16 12.34 21.20 16.19 15.75 17.00 L 13.73 17.00 C 8.05 16.41 4.03 12.33 0.00 8.76 L 0.00 8.16 C 3.93 4.76 7.69 0.79 13.15 0.01 L 7.47 0.00 M 2.08 8.50 C 5.09 11.64 8.49 14.69 12.97 15.41 C 11.22 13.79 8.86 12.46 8.22 9.98 C 7.32 7.55 9.23 5.34 10.06 3.20 C 10.95 4.64 12.33 6.43 9.58 7.81 C 10.66 6.87 11.69 5.87 12.59 4.75 C 12.58 3.66 11.79 2.74 11.48 1.71 C 7.74 3.05 4.75 5.65 2.08 8.50 M 16.06 1.58 C 18.09 3.35 20.68 5.05 20.99 7.98 C 21.28 11.29 18.48 13.56 16.05 15.23 C 20.62 14.90 23.93 11.60 26.93 8.51 C 23.91 5.36 20.53 2.33 16.06 1.58 M 14.14 5.61 C 12.79 6.48 11.90 7.82 11.03 9.13 L 11.11 7.32 C 10.51 8.03 9.91 8.74 9.33 9.46 C 10.36 10.85 11.10 12.89 13.07 13.16 C 16.66 14.52 20.55 10.64 19.16 7.06 C 18.78 4.37 15.74 3.90 13.71 3.07 C 13.82 3.71 14.04 4.97 14.14 5.61 Z" />
</g>
</svg>
