<?xml version="1.0" encoding="UTF-8" ?>
<!DOCTYPE svg PUBLIC "-//W3C//DTD SVG 1.1//EN" "http://www.w3.org/Graphics/SVG/1.1/DTD/svg11.dtd">
<svg width="29px" height="17px" viewBox="0 0 29 17" version="1.1" xmlns="http://www.w3.org/2000/svg">
<g id="#232d32a3">
<path fill="#37474f" opacity="0.64" d=" M 10.82 0.00 L 15.95 0.00 C 21.30 0.90 25.11 4.83 29.00 8.24 L 29.00 8.84 C 25.36 12.08 21.78 15.49 17.01 16.99 L 18.21 17.00 L 13.01 17.00 C 7.69 16.07 3.87 12.17 0.00 8.76 L 0.00 8.16 C 3.64 4.92 7.23 1.51 12.00 0.01 L 10.82 0.00 M 2.11 8.52 C 5.09 11.55 8.34 14.73 12.79 15.28 C 11.28 13.80 9.19 12.68 8.43 10.58 C 7.30 8.14 8.43 4.97 10.78 3.71 C 11.19 3.25 11.99 2.34 12.39 1.88 C 8.03 2.21 4.98 5.62 2.11 8.52 M 16.25 1.75 C 18.50 3.58 21.37 5.76 20.96 9.05 C 20.69 11.94 18.14 13.60 16.12 15.28 C 20.63 14.86 23.89 11.61 26.88 8.56 C 23.96 5.45 20.70 2.28 16.25 1.75 M 10.78 3.71 C 10.15 6.60 8.39 10.39 11.53 12.49 C 15.14 15.24 20.80 11.48 19.18 7.08 C 18.39 3.11 13.80 3.73 10.78 3.71 Z" />
<path fill="#232d32" opacity="0.64" d=" M 10.96 7.77 C 10.40 6.35 12.36 4.39 13.79 4.96 C 13.87 6.21 12.20 7.86 10.96 7.77 Z" />
</g>
</svg>
