<?xml version="1.0" encoding="UTF-8" ?>
<!DOCTYPE svg PUBLIC "-//W3C//DTD SVG 1.1//EN" "http://www.w3.org/Graphics/SVG/1.1/DTD/svg11.dtd">
<svg width="27px" height="22px" viewBox="0 0 27 22" version="1.1" xmlns="http://www.w3.org/2000/svg">
<g id="#ad6f6fb9">
<path fill="#ffffff" opacity="0.73" d=" M 24.26 0.00 L 25.13 0.00 C 23.90 2.06 22.27 3.82 20.50 5.41 C 22.72 7.28 24.80 9.32 27.00 11.22 L 27.00 11.78 C 23.75 13.81 21.39 17.22 17.65 18.44 C 14.58 19.39 10.95 19.57 8.27 17.52 C 6.74 19.04 5.22 20.58 3.58 22.00 L 2.82 22.00 C 4.60 19.17 7.04 16.84 9.58 14.69 C 7.25 13.23 7.51 9.84 8.91 7.84 C 10.11 6.57 11.63 5.68 12.99 4.62 C 8.34 5.01 4.92 8.24 1.93 11.49 C 3.72 13.01 5.54 14.58 6.48 16.80 C 4.24 15.20 2.17 13.39 0.00 11.70 L 0.00 11.25 C 1.85 9.67 3.55 7.92 5.43 6.37 C 9.04 3.36 14.39 2.76 18.63 4.75 C 17.69 4.93 15.81 5.29 14.87 5.46 C 15.57 5.74 16.97 6.29 17.67 6.56 C 19.83 4.34 22.03 2.15 24.26 0.00 M 10.16 8.38 C 8.49 9.94 8.91 12.40 9.84 14.23 C 12.29 11.86 14.72 9.47 17.10 7.03 C 14.77 6.64 11.69 5.99 10.16 8.38 M 18.15 6.25 C 18.97 8.13 20.48 9.92 20.05 12.11 C 19.94 14.34 17.90 15.70 16.68 17.35 C 20.16 16.50 22.57 13.77 25.07 11.41 C 23.03 9.39 21.17 6.77 18.15 6.25 M 8.78 17.04 C 11.47 17.81 14.34 18.29 17.07 17.39 C 14.99 17.17 12.90 17.05 10.81 16.93 L 10.70 15.54 C 13.16 16.03 16.46 16.70 17.97 14.07 C 19.59 12.26 18.76 9.91 17.88 7.98 C 14.87 11.03 11.79 14.00 8.78 17.04 Z" />
</g>
</svg>
