<?xml version="1.0" encoding="UTF-8" ?>
<!DOCTYPE svg PUBLIC "-//W3C//DTD SVG 1.1//EN" "http://www.w3.org/Graphics/SVG/1.1/DTD/svg11.dtd">
<svg width="13pt" height="13pt" viewBox="0 0 13 13" version="1.1" xmlns="http://www.w3.org/2000/svg">
<g id="#37474fff">
<path fill="#37474f" opacity="1.00" d=" M 0.87 0.00 L 2.43 0.00 C 3.41 0.94 4.36 1.92 5.31 2.91 C 4.91 3.47 4.11 4.60 3.71 5.16 C 5.02 6.63 6.41 8.02 7.89 9.32 C 8.44 8.92 9.56 8.11 10.11 7.70 C 11.09 8.64 12.06 9.58 13.00 10.55 L 13.00 12.49 C 12.90 12.61 12.71 12.87 12.61 13.00 L 9.02 13.00 C 4.99 11.59 1.75 8.45 0.00 4.59 L 0.00 1.79 C 0.31 1.55 0.93 1.06 1.23 0.81 L 0.87 0.00 Z" />
</g>
</svg>
