<?xml version="1.0" encoding="UTF-8" ?>
<!DOCTYPE svg PUBLIC "-//W3C//DTD SVG 1.1//EN" "http://www.w3.org/Graphics/SVG/1.1/DTD/svg11.dtd">
<svg width="122pt" height="116pt" viewBox="0 0 122 116" version="1.1" xmlns="http://www.w3.org/2000/svg">
<g id="#222d33e8">
<path fill="#222d33" opacity="0.91" d=" M 5.86 0.00 L 13.84 0.00 C 13.75 3.09 13.56 6.22 12.57 9.18 C 12.06 6.82 11.67 4.43 11.32 2.04 C 8.32 2.53 2.40 1.46 2.51 5.95 C 2.21 9.69 6.26 9.75 8.95 9.75 C 44.33 9.71 79.71 9.71 115.09 9.73 C 118.56 9.30 121.04 11.95 122.00 15.01 L 122.00 91.87 C 120.95 93.67 119.96 95.98 117.71 96.52 C 114.60 97.17 111.40 96.84 108.25 96.92 C 108.33 71.02 108.40 45.12 108.22 19.22 C 111.36 19.14 114.57 19.40 117.66 18.67 C 120.39 17.52 118.96 14.18 118.59 12.05 C 87.40 11.55 56.20 11.97 25.01 11.82 C 17.44 11.66 9.81 12.36 2.29 11.20 C 2.50 34.49 2.15 57.79 2.45 81.07 C 2.05 84.35 5.30 85.57 8.04 85.28 C 39.03 85.35 70.03 85.31 101.03 85.29 C 103.19 85.30 105.36 85.51 107.48 85.99 C 105.81 87.02 103.90 87.41 101.97 87.38 C 73.31 87.32 44.65 87.34 16.00 87.36 C 12.06 87.27 8.06 87.75 4.16 87.01 C 1.81 86.45 0.89 83.98 0.00 82.01 L 0.00 5.80 C 0.75 2.88 2.92 0.71 5.86 0.00 M 110.33 21.31 C 110.38 45.84 110.31 70.36 110.36 94.89 C 112.74 94.78 115.17 94.95 117.51 94.38 C 119.74 93.62 119.54 90.91 119.65 89.02 C 119.74 66.16 119.50 43.29 119.76 20.44 C 116.67 21.13 113.49 21.28 110.33 21.31 Z" />
<path fill="#222d33" opacity="0.91" d=" M 21.08 23.00 C 27.42 23.00 33.75 23.00 40.09 23.00 C 40.08 23.50 40.07 24.49 40.07 24.99 C 34.43 25.02 28.79 24.99 23.15 25.00 C 23.17 28.38 23.18 31.77 22.85 35.15 C 19.64 31.98 21.60 27.00 21.08 23.00 Z" />
<path fill="#222d33" opacity="0.91" d=" M 43.94 23.00 C 60.39 23.00 76.83 23.00 93.28 23.00 C 93.29 40.67 93.28 58.33 93.28 76.00 C 76.83 76.00 60.39 76.00 43.94 76.00 C 43.93 74.11 43.93 72.23 43.92 70.34 C 34.37 70.33 24.83 70.37 15.29 70.33 C 15.60 66.80 14.64 62.79 17.00 59.77 C 17.43 62.59 17.50 65.45 17.59 68.31 C 26.35 68.32 35.12 68.31 43.88 68.31 C 43.91 65.55 43.95 62.79 44.24 60.05 C 44.63 60.54 45.40 61.51 45.79 62.00 C 46.26 65.98 45.94 70.00 45.95 74.00 C 61.05 74.00 76.14 74.00 91.24 74.00 C 91.24 65.23 91.25 56.47 91.23 47.70 C 77.84 47.42 64.39 48.28 51.05 47.27 C 51.61 44.93 54.30 45.94 55.97 45.63 C 60.56 45.62 65.16 45.66 69.75 45.67 C 70.21 45.06 70.67 44.45 71.13 43.84 C 72.29 44.58 73.36 45.85 74.91 45.64 C 80.35 45.77 85.80 45.61 91.24 45.62 C 91.24 38.75 91.24 31.88 91.24 25.00 C 84.96 25.00 78.68 24.99 72.40 25.01 C 72.41 30.06 72.39 35.12 72.49 40.17 C 70.28 40.08 68.07 39.95 65.87 39.69 C 67.26 38.71 68.81 38.03 70.38 37.40 C 70.38 33.27 70.38 29.13 70.38 25.00 C 66.63 25.00 62.88 25.00 59.13 25.00 C 59.14 29.16 59.16 33.31 59.09 37.46 C 60.74 38.06 62.41 38.63 63.88 39.61 C 60.34 39.77 55.87 41.27 52.87 38.91 C 54.25 38.37 55.66 37.93 57.11 37.60 C 57.10 33.40 57.11 29.20 57.10 25.00 C 53.39 25.00 49.68 25.00 45.97 25.00 C 45.96 29.20 45.98 33.40 45.96 37.60 C 47.51 37.97 49.00 38.48 50.45 39.14 C 48.40 40.09 46.14 40.12 43.94 40.24 C 43.93 34.50 43.92 28.75 43.94 23.00 Z" />
<path fill="#222d33" opacity="0.91" d=" M 21.01 45.63 C 21.24 42.78 20.39 39.42 22.72 37.20 C 23.10 40.01 23.16 42.84 23.21 45.67 C 29.82 45.63 36.44 45.70 43.06 45.62 C 43.54 45.19 44.49 44.32 44.97 43.88 C 46.22 44.98 47.36 46.20 48.53 47.38 C 38.23 48.08 27.86 47.54 17.53 47.70 C 17.53 51.16 17.52 54.63 17.04 58.07 C 14.20 54.59 15.87 49.77 15.32 45.68 C 17.21 45.65 19.11 45.64 21.01 45.63 Z" />
<path fill="#222d33" opacity="0.91" d=" M 19.44 96.73 C 21.62 94.10 25.00 91.76 28.52 93.39 C 33.49 95.18 34.04 102.82 29.39 105.32 C 25.82 107.63 21.69 105.41 19.44 102.39 C 16.71 102.31 13.77 103.11 11.19 102.06 C 9.53 101.37 9.74 99.57 9.97 98.12 C 12.37 95.51 16.33 96.97 19.44 96.73 M 24.22 95.25 C 21.66 96.23 20.40 99.65 21.97 101.98 C 23.68 105.18 29.08 104.78 30.23 101.31 C 31.91 97.78 27.80 93.62 24.22 95.25 M 12.36 99.44 C 12.82 100.75 15.09 100.18 16.21 100.38 C 16.75 100.58 19.88 100.05 18.17 99.25 C 16.28 99.05 14.16 98.70 12.36 99.44 Z" />
<path fill="#222d33" opacity="0.91" d=" M 24.20 97.05 C 26.55 95.70 29.79 97.94 28.68 100.57 C 28.09 103.05 24.05 103.13 23.26 100.75 C 22.44 99.44 23.36 98.04 24.20 97.05 M 25.21 99.17 C 25.37 102.51 28.19 97.62 25.21 99.17 Z" />
<path fill="#222d33" opacity="0.91" d=" M 33.11 97.04 C 40.70 96.27 48.35 96.81 55.96 96.66 C 63.64 96.79 71.34 96.32 79.00 96.99 C 77.86 97.96 76.65 98.99 75.03 98.75 C 63.69 98.83 52.34 98.68 41.00 98.80 C 38.29 98.72 35.16 99.29 33.11 97.04 Z" />
<path fill="#222d33" opacity="0.91" d=" M 83.72 96.72 C 87.52 96.64 91.31 96.64 95.10 96.73 C 95.15 103.05 95.16 109.36 95.10 115.68 C 91.31 115.78 87.52 115.78 83.73 115.69 C 83.61 109.36 83.62 103.04 83.72 96.72 M 84.62 100.09 C 87.76 100.36 91.44 101.32 94.10 99.03 C 90.92 98.75 87.46 98.21 84.62 100.09 M 85.72 102.45 C 85.75 104.94 85.76 107.44 85.77 109.94 C 88.21 109.94 90.65 109.94 93.09 109.95 C 93.10 107.45 93.11 104.96 93.14 102.47 C 90.66 102.47 88.19 102.48 85.72 102.45 M 84.86 112.14 C 87.26 114.51 91.50 114.42 94.01 112.28 C 90.97 111.91 87.91 111.91 84.86 112.14 Z" />
<path fill="#222d33" opacity="0.91" d=" M 33.01 102.02 C 34.46 100.99 36.13 100.27 37.94 100.43 C 49.98 100.44 62.02 100.47 74.06 100.42 C 75.91 100.27 77.67 100.81 79.07 102.04 C 71.08 102.94 63.02 102.29 55.00 102.48 C 47.67 102.31 40.30 102.93 33.01 102.02 Z" />
<path fill="#222d33" opacity="0.91" d=" M 9.29 111.64 C 13.19 109.56 17.44 107.72 21.96 107.95 C 40.65 108.06 59.35 107.94 78.04 108.03 C 78.06 110.56 78.06 113.08 78.07 115.60 C 75.84 115.74 73.62 115.90 71.39 116.00 L 18.59 116.00 C 15.35 114.89 12.05 113.72 9.29 111.64 M 13.74 111.58 C 15.34 112.32 16.96 113.00 18.60 113.66 C 18.58 113.02 18.53 111.74 18.51 111.11 C 17.22 109.80 15.21 111.75 13.74 111.58 M 20.89 110.00 C 20.88 111.27 20.83 112.54 20.71 113.81 C 34.75 113.62 48.80 113.77 62.85 113.73 C 62.86 112.49 62.87 111.25 62.87 110.01 C 48.88 109.99 34.88 110.01 20.89 110.00 M 64.89 110.01 C 64.90 111.24 64.91 112.48 64.92 113.71 C 66.72 113.72 68.53 113.73 70.33 113.74 C 70.36 112.50 70.38 111.26 70.40 110.02 C 68.56 110.02 66.72 110.02 64.89 110.01 M 72.36 110.06 C 72.39 111.28 72.42 112.50 72.45 113.72 C 73.63 113.72 74.82 113.72 76.01 113.73 C 76.02 112.48 76.03 111.24 76.05 110.00 C 74.82 110.01 73.59 110.03 72.36 110.06 Z" />
<path fill="#222d33" opacity="0.91" d=" M 67.29 111.14 C 70.65 111.29 65.73 114.14 67.29 111.14 Z" />
</g>
</svg>
