<?xml version="1.0" encoding="UTF-8" ?>
<!DOCTYPE svg PUBLIC "-//W3C//DTD SVG 1.1//EN" "http://www.w3.org/Graphics/SVG/1.1/DTD/svg11.dtd">
<svg width="13pt" height="13pt" viewBox="0 0 13 13" version="1.1" xmlns="http://www.w3.org/2000/svg">
<g id="#311e1bc9">
<path fill="#311e1b" opacity="0.79" d=" M 2.86 0.00 L 7.36 0.00 C 11.18 1.61 11.86 5.93 10.19 9.39 C 11.13 10.38 12.09 11.35 13.00 12.36 L 13.00 13.00 L 12.31 13.00 C 11.33 12.08 10.35 11.15 9.38 10.22 C 5.92 11.89 1.71 11.14 0.00 7.46 L 0.00 3.04 C 1.08 2.16 2.22 1.27 2.86 0.00 M 4.16 1.11 C 1.32 1.95 -0.17 5.74 1.72 8.15 C 3.77 11.64 9.93 10.13 10.04 6.09 C 10.71 2.88 7.17 -0.00 4.16 1.11 Z" />
</g>
</svg>
