<?xml version="1.0" encoding="UTF-8" ?>
<!DOCTYPE svg PUBLIC "-//W3C//DTD SVG 1.1//EN" "http://www.w3.org/Graphics/SVG/1.1/DTD/svg11.dtd">
<svg width="40pt" height="40pt" viewBox="0 0 40 40" version="1.1" xmlns="http://www.w3.org/2000/svg">
<g id="#507299ff">
<path fill="#507299" opacity="1.00" d=" M 0.00 0.00 L 40.00 0.00 L 40.00 40.00 L 0.00 40.00 L 0.00 0.00 M 14.79 12.23 C 15.39 13.03 15.99 13.83 16.59 14.63 C 16.57 16.82 16.93 19.22 15.39 21.03 C 13.27 18.64 11.74 15.84 10.57 12.89 C 8.62 12.84 6.67 12.81 4.72 12.79 C 6.90 17.77 9.19 23.01 13.31 26.72 C 15.50 28.79 18.58 29.02 21.44 28.98 C 21.84 27.43 22.31 25.90 22.90 24.42 C 24.44 25.78 25.88 27.24 27.44 28.56 C 29.60 29.41 32.01 28.75 34.26 28.83 C 33.39 25.87 30.78 23.99 28.83 21.76 C 30.73 18.84 33.14 16.18 34.30 12.85 C 32.15 12.85 30.01 12.80 27.86 12.71 C 26.49 15.66 24.95 18.57 22.82 21.06 C 20.97 18.60 21.92 15.42 21.99 12.62 C 19.65 11.86 17.20 12.04 14.79 12.23 Z" />
</g>
<g id="#ffffffff">
<path fill="#ffffff" opacity="1.00" d=" M 14.79 12.23 C 17.20 12.04 19.65 11.86 21.99 12.62 C 21.92 15.42 20.97 18.60 22.82 21.06 C 24.95 18.57 26.49 15.66 27.86 12.71 C 30.01 12.80 32.15 12.85 34.30 12.85 C 33.14 16.18 30.73 18.84 28.83 21.76 C 30.78 23.99 33.39 25.87 34.26 28.83 C 32.01 28.75 29.60 29.41 27.44 28.56 C 25.88 27.24 24.44 25.78 22.90 24.42 C 22.31 25.90 21.84 27.43 21.44 28.98 C 18.58 29.02 15.50 28.79 13.31 26.72 C 9.19 23.01 6.90 17.77 4.72 12.79 C 6.67 12.81 8.62 12.84 10.57 12.89 C 11.74 15.84 13.27 18.64 15.39 21.03 C 16.93 19.22 16.57 16.82 16.59 14.63 C 15.99 13.83 15.39 13.03 14.79 12.23 Z" />
</g>
</svg>
