<?xml version="1.0" encoding="UTF-8" ?>
<!DOCTYPE svg PUBLIC "-//W3C//DTD SVG 1.1//EN" "http://www.w3.org/Graphics/SVG/1.1/DTD/svg11.dtd">
<svg width="512pt" height="512pt" viewBox="0 0 512 512" version="1.1" xmlns="http://www.w3.org/2000/svg">
<g id="#010101ff">
<path fill="#010101" opacity="1.00" d=" M 248.44 0.00 L 263.51 0.00 C 299.21 1.26 334.73 9.59 366.90 25.21 C 418.70 50.01 461.61 92.82 486.52 144.58 C 502.31 176.89 510.71 212.59 512.00 248.49 L 512.00 263.49 C 510.68 301.18 501.41 338.64 484.14 372.21 C 453.88 431.92 399.31 478.80 335.58 499.36 C 312.33 507.07 287.94 511.00 263.49 512.00 L 248.50 512.00 C 207.38 510.59 166.55 499.59 130.72 479.28 C 80.50 451.20 40.28 405.68 18.75 352.31 C 7.18 324.17 1.14 293.92 0.00 263.55 L 0.00 248.51 C 0.98 223.53 5.10 198.62 13.11 174.91 C 30.59 122.03 66.09 75.45 112.15 44.21 C 152.11 16.79 200.05 1.55 248.44 0.00 M 238.05 22.10 C 177.02 26.34 118.49 56.19 78.68 102.56 C 43.23 143.06 22.61 196.19 21.46 250.00 C 19.84 304.22 38.03 358.71 71.81 401.14 C 102.18 439.74 144.90 468.52 192.22 481.77 C 237.73 494.71 287.19 493.40 331.92 477.98 C 371.92 464.32 408.01 439.49 435.22 407.16 C 462.11 375.45 480.39 336.47 487.25 295.45 C 495.10 249.94 489.10 202.13 470.06 160.04 C 452.91 121.81 425.28 88.36 391.01 64.25 C 347.03 32.91 291.89 17.71 238.05 22.10 Z" />
<path fill="#010101" opacity="1.00" d=" M 151.57 153.45 C 155.21 148.46 163.23 147.96 167.48 152.43 C 196.97 181.92 226.48 211.41 255.96 240.92 C 284.30 212.63 312.59 184.30 340.91 155.99 C 343.59 153.37 346.13 150.03 350.09 149.46 C 354.97 148.55 360.15 151.48 361.92 156.10 C 363.45 159.91 362.46 164.55 359.58 167.45 C 330.14 197.03 300.50 226.41 271.11 256.04 C 300.40 285.35 329.69 314.65 359.00 343.93 C 362.86 347.34 363.82 353.54 360.92 357.85 C 357.55 363.44 348.94 364.25 344.46 359.56 C 314.95 330.12 285.51 300.60 256.01 271.14 C 226.42 300.51 197.05 330.09 167.53 359.52 C 164.12 363.03 158.18 363.75 154.14 360.91 C 149.72 358.17 147.98 351.96 150.36 347.33 C 151.69 344.79 154.00 342.97 155.96 340.94 C 184.26 312.63 212.58 284.34 240.87 256.02 C 211.43 226.51 181.92 197.06 152.45 167.58 C 148.69 163.95 148.27 157.51 151.57 153.45 Z" />
</g>
</svg>
